<svg width="489" height="489" viewBox="0 0 489 489" fill="none" xmlns="http://www.w3.org/2000/svg">
<rect width="489" height="489" rx="100" fill="" fill-opacity="0.07"/>
<path fill-rule="evenodd" clip-rule="evenodd" d="M130.782 369.666C142.133 389.795 158.633 406.545 178.592 418.201C198.551 429.857 221.252 436 244.368 436C267.483 436 290.184 429.857 310.143 418.201C330.102 406.545 346.602 389.795 357.954 369.666C369.602 349.5 375.735 326.624 375.735 303.337C375.735 280.051 369.602 257.174 357.954 237.008L258.053 61.9911C256.685 59.5662 254.697 57.5483 252.292 56.1441C249.887 54.74 247.152 54 244.368 54C241.583 54 238.848 54.74 236.443 56.1441C234.038 57.5483 232.05 59.5662 230.682 61.9911L130.782 237.008C119.133 257.174 113 280.051 113 303.337C113 326.624 119.133 349.5 130.782 369.666ZM216.225 145.255L237.525 107.938C238.209 106.726 239.203 105.717 240.405 105.015C241.608 104.312 242.975 103.942 244.368 103.942C245.76 103.942 247.127 104.312 248.33 105.015C249.532 105.717 250.526 106.726 251.21 107.938L333.152 251.494C340.508 264.222 345.069 278.37 346.53 292.996C347.992 307.623 346.321 322.393 341.63 336.324C340.61 331.576 339.208 326.917 337.437 322.395C326.119 293.502 300.527 271.207 261.356 256.124C234.427 245.792 217.236 230.596 210.251 210.953C201.255 185.644 210.652 158.039 216.225 145.255ZM179.905 208.885L155.583 251.494C146.476 267.257 141.682 285.139 141.682 303.342C141.682 321.544 146.476 339.426 155.583 355.189C162.944 368.224 173.085 379.479 185.287 388.155C197.489 396.832 211.453 402.716 226.186 405.392C240.919 408.067 256.061 407.467 270.536 403.635C285.011 399.803 298.465 392.833 309.942 383.219C316.284 367.011 316.511 349.05 310.579 332.687C302.267 311.812 282.256 295.148 251.104 283.145C215.891 269.635 193.016 248.543 183.121 220.473C181.788 216.688 180.714 212.816 179.905 208.885Z" fill="#00BDAF"/>
</svg>
